<svg width="1406" height="676" viewBox="0 0 1406 676" fill="none" xmlns="http://www.w3.org/2000/svg">
<path d="M322.667 507.803C322.667 541.676 350.127 569.136 384 569.136C417.873 569.136 445.333 541.676 445.333 507.803C445.333 473.929 417.873 446.469 384 446.469C350.127 446.469 322.667 473.929 322.667 507.803ZM384 519.303L837.071 519.303V496.303L384 496.303V519.303Z" fill="black"/>
<path d="M611.004 58.6313L511.004 0.896321V116.366L611.004 58.6313ZM-0.0224609 68.6313H521.004V48.6313H-0.0224609L-0.0224609 68.6313Z" fill="black"/>
<path d="M1102.03 58.209L1002.03 0.473957V115.944L1102.03 58.209ZM491 68.209H1012.03V48.209H491V68.209Z" fill="black"/>
<path d="M1307 281.726L1372.82 194.375L1252.6 179.693L1307 281.726ZM1322.55 196.701C1319.42 147.808 1302 111.434 1260.81 87.1613C1221.01 63.7031 1160.63 52.6522 1074.66 49.0207L1075.34 68.1089C1160.99 71.7266 1216.18 82.7458 1250.54 102.997C1283.51 122.433 1298.85 151.406 1301.73 196.318L1322.55 196.701Z" fill="black"/>
<path d="M806 506.949L913.171 561.189L913.974 455.194L806 506.949ZM1300.24 257.958C1301.62 316.098 1299.22 360.014 1289.66 393.384C1280.21 426.387 1263.93 448.488 1237.71 463.83C1211 479.456 1172.83 488.778 1117.86 493.845C1063.01 498.903 992.776 499.626 902.845 498.887L902.79 517.247C992.679 517.986 1064.07 517.287 1120.32 512.1C1176.47 506.923 1218.89 497.18 1249.96 478.996C1281.52 460.529 1300.19 434.077 1310.56 397.862C1320.83 362.015 1323.13 316.049 1321.76 257.719L1300.24 257.958Z" fill="black"/>
<ellipse cx="383.5" cy="508" rx="62.5" ry="62" fill="#FFC100"/>
</svg>
