<svg width="545" height="197" viewBox="0 0 545 197" fill="none" xmlns="http://www.w3.org/2000/svg">
<mask id="mask0_616_1625" style="mask-type:luminance" maskUnits="userSpaceOnUse" x="0" y="0" width="545" height="197">
<path d="M0.160156 0.5H545V196.162H0.160156V0.5Z" fill="white"/>
</mask>
<g mask="url(#mask0_616_1625)">
<path fill-rule="evenodd" clip-rule="evenodd" d="M519.011 88.4669C519.269 93.7712 516.685 95.8095 515.749 99.7376C531.093 101.547 556.872 104.649 555.513 82.4564C542.252 83.1987 533.757 89.4379 519.011 88.4669ZM402.987 127.539C416.104 133.116 421.15 120.497 424.496 110.258C424.339 103.975 421.161 96.5638 418.629 90.7178C408.377 86.4928 401.237 74.7326 388.648 75.6956C387.393 78.5083 388.373 83.8968 386.694 86.212C393.072 86.3765 404.767 87.6123 410.804 94.4774C414.738 98.9431 419.895 113.067 411.462 113.259C410.526 112.842 409.872 112.088 409.507 111.008C412.209 105.632 410.898 103.955 408.2 98.9833C398.984 101.848 396.049 119.001 402.987 127.539ZM511.84 98.9833C518.524 88.816 518.097 70.7925 510.536 65.1752C494.442 53.2144 475.269 76.3857 490.985 88.4669C494.438 87.191 497.012 84.8999 498.152 80.9518C496.528 79.8163 494.539 79.1061 494.894 75.6956C497.759 73.2922 503.108 74.0144 503.369 78.7008C500.135 97.3663 478.573 99.1638 464.259 94.4774C463.953 100.135 458.031 99.3243 455.784 102.743C468.634 112.938 501.693 114.427 511.84 98.9833ZM457.742 62.17C445.094 52.8814 431.493 67.5225 438.184 84.7113C448.099 85.7626 448.029 77.4811 448.613 71.1857C449.667 72.2289 451.976 71.8197 452.526 73.4407C453.385 78.9336 450.714 80.37 451.218 85.4616C443.752 90.2644 433.472 90.9305 423.842 91.4721C425.863 95.9098 426.927 101.439 429.062 105.748C436.675 105.503 443.724 94.5416 453.179 98.9833C465.807 94.7984 469.33 70.6762 457.742 62.17ZM309.779 38.124C296.059 45.278 284.527 58.5268 271.319 69.6811C261.916 77.6296 243.752 90.1441 234.168 94.4774C227.153 97.6512 213.719 103.473 206.788 102.743C203.79 102.426 201.158 99.1518 198.317 98.237C184.868 93.8996 167.212 95.99 150.732 94.4774C134.376 92.9728 117.381 89.5021 101.193 88.4669C71.2781 86.557 40.1983 88.487 11.2399 85.4616C10.4192 112.368 12.9718 136.727 17.1067 160.601C29.8384 168.814 44.9071 171.458 62.0866 174.122C74.7592 176.089 87.4456 181.329 99.8887 183.142C108.659 184.414 118.664 184.414 127.919 184.643C150.711 185.209 174.015 187.845 194.404 186.143C205.432 185.225 218.463 171.258 228.301 163.602C247.052 149.013 262.347 132.807 278.49 117.769C290.77 106.33 301.175 96.9129 311.73 84.7113C315.051 80.8715 318.713 77.2002 319.554 74.191C322.604 63.3015 320.591 45.9842 314.992 37.3737C312.446 38.5573 311.431 37.2613 309.779 38.124ZM191.146 41.1292C183.658 47.1718 169.866 50.6987 157.252 51.6496C142.695 52.749 130.363 53.9126 132.481 37.3737C123.328 38.3367 116.3 41.7592 113.58 50.145C131.567 60.5931 161.193 56.0271 178.111 50.8993C187.059 48.1829 197.082 46.5539 202.229 39.6286C200.108 35.5561 200.184 28.9598 195.058 28.3579C194.623 28.3579 194.185 28.3579 193.754 28.3579C195.117 33.2129 192.641 37.3777 191.146 41.1292ZM361.269 88.4669C361.37 91.1993 366.683 95.3521 370.394 95.2277C376.23 95.0351 383.4 86.7376 384.089 83.2067C385.063 78.1431 383.188 74.4718 381.481 68.9348C376.463 52.6687 370.283 43.7814 358.664 35.1188C347.146 26.5363 332.839 23.6073 320.208 35.8691C321.269 39.4079 323.157 41.9839 323.467 46.3894C341.477 36.2944 364.051 51.0558 368.44 68.1805C370.064 74.4959 372.102 86.9141 367.139 88.4669C364.367 88.3987 365.07 84.3382 363.877 82.4564C364.037 86.886 361.15 85.2049 361.269 88.4669ZM138.348 26.103C139.381 32.9802 140.841 41.8675 140.306 47.1397C156.115 48.4758 197.169 49.7759 188.537 19.3422C175.889 29.036 153.625 24.5863 138.348 26.103ZM104.455 84.7113C130.137 86.866 155.562 92.1422 180.716 92.2225C194.703 92.2706 204.806 99.2721 218.525 95.982C235.993 91.7851 251.483 77.0718 266.103 69.6811C275.767 58.9962 285.407 50.9555 296.091 43.3802C300.584 40.1984 310.749 35.4317 311.73 30.6129C313.552 21.7055 298.202 20.2008 290.224 19.3422C263.185 16.4252 218.028 18.4394 194.404 14.8323C192.85 17.8015 193.277 19.6712 193.754 22.3434C197.381 23.9404 201.596 24.9836 204.183 28.3579C205.675 30.3039 208.28 37.2533 208.092 38.8783C206.837 49.6314 192.54 49.8521 183.324 53.1542C169.205 58.2058 149.904 61.9654 134.436 60.6654C125.533 59.9191 111.824 58.8839 109.668 53.9046C103.669 40.062 125.874 34.3243 132.481 30.6129C132.252 28.8314 131.483 24.8311 132.481 21.5971C94.4914 41.4181 53.5455 57.8366 18.4143 80.9518C44.521 85.9993 76.258 82.3481 104.455 84.7113ZM138.998 19.3422C144.128 23.3265 151.33 21.6453 157.252 21.5971C162.615 21.549 168.221 22.1107 172.245 21.5971C178.254 20.8228 185.526 18.9971 188.537 12.5774C169.685 10.511 149.57 7.13665 138.998 19.3422ZM320.858 23.0978C348.864 8.78573 383.988 34.6333 390.603 64.4249C407.115 66.0499 414.153 82.7493 429.062 81.7021C425.296 59.582 438.125 46.0965 455.137 49.3947C469.813 52.2434 473.04 71.8116 476.64 85.4616C465.261 49.3907 527.354 38.9866 525.528 76.4459C539.811 78.44 548.422 73.5329 564.638 71.936C567.01 78.0268 566.766 89.9033 563.988 95.982C552.546 107.453 534.49 110.904 514.445 108.753C497.857 121.513 461.661 124.153 447.309 108.003C442.117 110.278 436.588 112.172 431.667 114.768C429.608 128.715 417.829 139.705 406.899 138.806C391.027 137.506 386.276 115.787 393.861 98.9833C391.743 97.4225 389.424 96.0863 386.694 95.2277C380.684 98.7024 369.625 108.436 358.664 101.993C351.003 95.7132 350.909 80.5104 358.01 73.4407C354.261 60.1839 340.768 54.3058 328.68 53.1542C329.132 59.582 334.96 73.2561 331.942 82.4564C331.281 84.4626 326.934 89.3416 324.12 92.2225C317.798 98.6823 313.715 101.21 307.167 107.249C298.664 115.101 289.403 123.759 278.49 132.795C263.425 145.278 247.358 158.707 231.556 171.868C215.667 185.112 208.885 194.609 183.971 195.914C171.372 196.576 160.466 195.769 148.124 195.163C132.095 194.373 115.59 194.228 99.8887 192.158C90.2869 190.886 80.3964 187.632 71.2085 185.393C53.3925 181.052 34.9575 179.772 17.764 171.868C14.7385 171.089 12.1198 173.256 10.5896 171.868C6.24952 149.695 2.47975 126.809 2.11807 101.993C2.07286 98.7666 2.96314 94.9268 2.76839 91.4721C2.52496 87.1789 0.744401 85.2089 0.160156 82.4564C1.26605 77.9666 6.69813 78.4681 7.98486 74.191C18.3865 71.6672 26.6807 64.1842 36.0112 59.1647C46.9206 53.2947 58.9359 48.4036 68.6037 41.1292C90.9928 33.1286 110.144 21.3925 128.569 8.82184C130.687 8.38449 131.601 9.3314 133.135 9.57214C147.894 -1.13681 172.203 -1.99946 190.495 5.06628C211.674 5.43541 233.583 7.33727 255.027 8.07153C268.506 8.53295 281.971 7.95517 294.136 9.57214C305.185 11.0447 315.106 13.416 320.858 23.0978Z" fill="black"/>
</g>
<path fill-rule="evenodd" clip-rule="evenodd" d="M188.537 12.5772C185.525 18.9969 178.254 20.8226 172.244 21.5969C168.221 22.1105 162.615 21.5488 157.252 21.5969C151.33 21.6451 144.128 23.3263 138.998 19.342C149.57 7.13644 169.685 10.5108 188.537 12.5772Z" fill="#FF3600"/>
<path fill-rule="evenodd" clip-rule="evenodd" d="M207.438 70.4312C208.815 71.1012 209.368 72.7222 211.35 72.6861C214.021 69.4843 209.674 67.8512 211.35 63.6704C210.516 63.6302 210.45 62.7114 209.4 62.9201C208.217 64.8139 207.16 66.8562 207.438 70.4312ZM219.172 63.6704C220.138 64.0636 220.817 64.7818 221.783 65.175C222.941 64.1679 223.797 60.8256 222.434 59.1645C219.718 58.7873 219.304 61.0664 219.172 63.6704ZM253.722 41.8833C252.063 40.5312 250.091 39.5522 247.855 38.8781C243.474 42.3969 252.481 47.0552 253.722 41.8833ZM256.327 38.1238C258.32 38.6654 258.702 37.3534 260.239 37.3735C259.937 34.4645 258.553 32.8074 255.677 32.8676C254.574 35.3713 256.087 35.4315 256.327 38.1238ZM18.4141 80.9515C53.5453 57.8364 94.4911 41.4179 132.481 21.5969C131.483 24.8309 132.251 28.8312 132.481 30.6126C125.873 34.3241 103.669 40.0617 109.668 53.9043C111.824 58.8836 125.533 59.9188 134.435 60.6651C149.904 61.9651 169.205 58.2055 183.324 53.154C192.54 49.8518 206.836 49.6312 208.092 38.8781C208.28 37.2531 205.675 30.3037 204.183 28.3577C201.596 24.9833 197.381 23.9401 193.754 22.3432C193.277 19.671 192.849 17.8012 194.404 14.8321C218.028 18.4392 263.185 16.425 290.224 19.342C298.201 20.2006 313.552 21.7052 311.729 30.6126C310.749 35.4315 300.583 40.1981 296.09 43.3799C285.407 50.9552 275.767 58.996 266.103 69.6809C251.483 77.0716 235.993 91.7849 218.525 95.9818C204.806 99.2719 194.703 92.2704 180.716 92.2222C155.562 92.142 130.137 86.8657 104.455 84.7111C76.2578 82.3478 44.5208 85.9991 18.4141 80.9515Z" fill="#D6C9BD"/>
<path fill-rule="evenodd" clip-rule="evenodd" d="M188.538 19.342C197.17 49.7756 156.116 48.4756 140.307 47.1395C140.842 41.8673 139.381 32.9799 138.349 26.1028C153.626 24.5861 175.89 29.0358 188.538 19.342Z" fill="#FF3600"/>
<path fill-rule="evenodd" clip-rule="evenodd" d="M363.877 82.4562C365.07 84.338 364.367 88.3985 367.139 88.4667C372.101 86.9139 370.064 74.4957 368.44 68.1803C364.051 51.0556 341.477 36.2941 323.467 46.3892C323.157 41.9836 321.269 39.4077 320.208 35.8688C332.839 23.6071 347.146 26.5361 358.664 35.1185C370.283 43.7812 376.462 52.6685 381.481 68.9346C383.188 74.4716 385.063 78.1429 384.089 83.2065C383.4 86.7374 376.229 95.0349 370.394 95.2275C366.683 95.3519 361.369 91.1991 361.269 88.4667C361.15 85.2046 364.037 86.8858 363.877 82.4562Z" fill="#B29580"/>
<path fill-rule="evenodd" clip-rule="evenodd" d="M193.754 28.3577C194.185 28.3577 194.623 28.3577 195.058 28.3577C200.184 28.9596 200.107 35.5559 202.229 39.6284C197.082 46.5537 187.059 48.1827 178.111 50.8991C161.193 56.0269 131.566 60.5929 113.58 50.1448C116.3 41.759 123.328 38.3364 132.481 37.3735C130.363 53.9124 142.695 52.7488 157.252 51.6494C169.866 50.6985 183.658 47.1716 191.146 41.129C192.641 37.3775 195.117 33.2127 193.754 28.3577Z" fill="#E4E5DA"/>
<path fill-rule="evenodd" clip-rule="evenodd" d="M255.677 32.8676C258.553 32.8074 259.937 34.4645 260.24 37.3735C258.703 37.3534 258.32 38.6655 256.327 38.1238C256.088 35.4315 254.575 35.3713 255.677 32.8676Z" fill="black"/>
<path fill-rule="evenodd" clip-rule="evenodd" d="M115.531 159.092C119.944 159.168 120.247 154.51 122.052 151.581C118.178 149.358 116.039 154.991 115.531 159.092ZM95.9799 153.086C99.7984 153.876 104.688 147.203 103.801 142.565C99.6732 144.319 96.9189 147.653 95.9799 153.086ZM195.058 138.059C195.736 141.49 197.854 146.565 201.575 144.07C200.546 140.748 198.571 138.517 197.009 135.804C196.376 136.571 195.726 137.325 195.058 138.059ZM212.655 135.804C214.178 133.67 212.119 130.857 212.005 128.289C211.351 128.289 210.701 128.289 210.047 128.289C209.362 131.419 208.485 136.374 212.655 135.804ZM314.992 37.3735C320.591 45.984 322.604 63.3013 319.554 74.1908C318.713 77.2 315.051 80.8713 311.73 84.7111C301.175 96.9127 290.77 106.33 278.49 117.769C262.347 132.807 247.052 149.013 228.301 163.602C218.463 171.257 205.432 185.224 194.404 186.143C174.015 187.844 150.711 185.208 127.919 184.643C118.665 184.414 108.659 184.414 99.8888 183.142C87.4458 181.328 74.7593 176.088 62.0867 174.122C44.9072 171.458 29.8385 168.814 17.1069 160.601C12.9719 136.727 10.4193 112.368 11.2401 85.4614C40.1984 88.4867 71.2782 86.5568 101.193 88.4667C117.381 89.5019 134.377 92.9726 150.732 94.4772C167.213 95.9898 184.869 93.8994 198.317 98.2367C201.158 99.1516 203.79 102.426 206.788 102.743C213.719 103.473 227.153 97.6509 234.168 94.4772C243.752 90.1438 261.916 77.6293 271.319 69.6809C284.528 58.5266 296.059 45.2778 309.779 38.1238C311.431 37.2611 312.446 38.5571 314.992 37.3735Z" fill="#BCA796"/>
<path fill-rule="evenodd" clip-rule="evenodd" d="M247.856 38.8781C250.092 39.5522 252.064 40.5312 253.723 41.8834C252.481 47.0553 243.474 42.3969 247.856 38.8781Z" fill="black"/>
<path fill-rule="evenodd" clip-rule="evenodd" d="M222.434 59.1645C223.797 60.8256 222.942 64.1679 221.784 65.175C220.817 64.7818 220.139 64.0636 219.172 63.6704C219.304 61.0664 219.718 58.7874 222.434 59.1645Z" fill="black"/>
<path fill-rule="evenodd" clip-rule="evenodd" d="M453.179 98.983C443.724 94.5413 436.674 105.503 429.062 105.748C426.926 101.439 425.862 95.9096 423.842 91.4719C433.471 90.9302 443.751 90.2642 451.218 85.4614C450.714 80.3697 453.384 78.9333 452.525 73.4404C451.976 71.8194 449.667 72.2287 448.613 71.1855C448.029 77.4809 448.098 85.7623 438.184 84.7111C431.493 67.5222 445.094 52.8812 457.742 62.1697C469.329 70.6759 465.807 94.7981 453.179 98.983Z" fill="#B29580"/>
<path fill-rule="evenodd" clip-rule="evenodd" d="M455.784 102.743C458.031 99.3241 463.953 100.135 464.259 94.4772C478.573 99.1636 500.135 97.3661 503.369 78.7006C503.108 74.0142 497.759 73.292 494.894 75.6954C494.539 79.1059 496.528 79.8161 498.152 80.9516C497.012 84.8997 494.438 87.1908 490.985 88.4667C475.269 76.3855 494.442 53.2142 510.536 65.175C518.097 70.7923 518.524 88.8158 511.84 98.983C501.693 114.427 468.634 112.938 455.784 102.743Z" fill="#B29580"/>
<path fill-rule="evenodd" clip-rule="evenodd" d="M209.4 62.9201C210.45 62.7114 210.516 63.6302 211.351 63.6704C209.675 67.8512 214.022 69.4843 211.351 72.6861C209.369 72.7222 208.816 71.1012 207.439 70.4312C207.16 66.8562 208.217 64.8139 209.4 62.9201Z" fill="black"/>
<path fill-rule="evenodd" clip-rule="evenodd" d="M408.2 98.9831C410.899 103.954 412.21 105.632 409.508 111.008C409.873 112.087 410.527 112.842 411.462 113.259C419.895 113.066 414.738 98.9429 410.805 94.4772C404.768 87.6121 393.072 86.3763 386.694 86.2118C388.374 83.8966 387.393 78.5081 388.649 75.6954C401.238 74.7324 408.377 86.4926 418.63 90.7176C421.161 96.5636 424.34 103.974 424.496 110.258C421.151 120.497 416.105 133.116 402.987 127.539C396.049 119.001 398.984 101.848 408.2 98.9831Z" fill="#B29580"/>
<path fill-rule="evenodd" clip-rule="evenodd" d="M555.513 82.4562C556.873 104.648 531.093 101.547 515.75 99.7374C516.685 95.8093 519.269 93.771 519.012 88.4667C533.757 89.4377 542.253 83.1985 555.513 82.4562Z" fill="#B29580"/>
<path fill-rule="evenodd" clip-rule="evenodd" d="M210.047 128.289C210.7 128.289 211.351 128.289 212.004 128.289C212.119 130.857 214.178 133.67 212.655 135.804C208.485 136.374 209.361 131.419 210.047 128.289Z" fill="black"/>
<path fill-rule="evenodd" clip-rule="evenodd" d="M197.01 135.804C198.571 138.517 200.546 140.748 201.576 144.07C197.855 146.565 195.737 141.49 195.059 138.059C195.726 137.325 196.377 136.571 197.01 135.804Z" fill="black"/>
<path fill-rule="evenodd" clip-rule="evenodd" d="M103.802 142.565C104.688 147.203 99.7989 153.876 95.9805 153.085C96.9194 147.653 99.6737 144.319 103.802 142.565Z" fill="black"/>
<path fill-rule="evenodd" clip-rule="evenodd" d="M122.052 151.581C120.247 154.51 119.944 159.168 115.531 159.092C116.039 154.991 118.178 149.358 122.052 151.581Z" fill="black"/>
</svg>
