<svg width="698" height="128" viewBox="0 0 698 128" fill="none" xmlns="http://www.w3.org/2000/svg">
<path d="M74.0789 70.4025C73.9954 68.3482 73.9711 66.3219 74.0093 64.3198C74.0545 62.3216 74.0789 60.2914 74.0789 58.2371C69.005 58.2371 64.0841 58.2371 59.3197 58.2371C54.5623 58.2371 49.7806 58.2371 44.9779 58.2371C40.3387 58.2371 35.6613 58.2371 30.9421 58.2371C26.2299 58.2371 21.4273 58.2371 16.5308 58.2371C16.4369 59.6735 16.3673 60.9013 16.3221 61.9284C16.2839 62.9556 16.2665 63.9346 16.2665 64.8655C16.1726 72.2602 16.0787 79.6068 15.9883 86.9013C15.9048 94.1877 15.7726 101.53 15.5988 108.921C15.5988 110.57 15.4875 112.243 15.2649 113.944C15.0423 115.638 14.6146 117.15 13.9851 118.486C13.4565 119.61 12.5871 120.613 11.3839 121.488C10.1875 122.354 9.05035 122.844 7.97576 122.948C7.08548 122.948 6.05958 122.491 4.90152 121.568C3.75042 120.637 2.95404 119.658 2.5089 118.631C1.8864 117.198 1.4656 115.638 1.24303 113.944C1.02046 112.243 0.90918 110.57 0.90918 108.921C1.26042 93.7303 1.63601 78.5315 2.03594 63.3247C2.43239 48.1219 2.85666 32.9192 3.3018 17.7124C3.3018 16.7935 3.3644 15.8747 3.49655 14.9519C3.63566 14.021 3.75042 13.0982 3.84431 12.1753C4.19556 10.3256 4.81806 8.73274 5.70833 7.39262C6.59861 6.05651 7.97924 5.44262 9.85369 5.54694C11.6342 5.64324 12.8758 6.36145 13.5817 7.69756C14.2946 9.03768 14.6981 10.6306 14.7919 12.4803C14.9658 16.4846 15.1188 20.4648 15.251 24.421C15.3901 28.3692 15.5466 32.3494 15.724 36.3618C15.724 37.7019 15.724 39.0099 15.724 40.2939C15.724 41.5778 15.724 43.0383 15.724 44.6753C22.1298 42.5247 28.5147 41.1405 34.8788 40.5185C41.2499 39.9006 47.6383 39.6439 54.0476 39.7482C60.4639 39.8565 66.9636 39.8043 73.5503 39.5877C73.279 34.8692 73.0356 30.1988 72.813 25.5766C72.5905 20.9543 72.3435 16.3321 72.0758 11.7099C72.0758 10.3738 72.0097 8.98953 71.881 7.55311C71.7489 6.10867 71.9262 4.82472 72.4096 3.70126C72.9 2.56978 73.9954 1.69108 75.6925 1.06916C77.3792 0.459286 78.9789 0.87657 80.4917 2.32101C82.001 3.75743 82.9817 6.11669 83.4268 9.39879C84.5849 18.0253 85.6316 26.6519 86.5706 35.2864C87.5061 43.913 88.372 52.5877 89.1719 61.3185C89.7909 69.1306 90.3021 76.9627 90.702 84.8148C91.1089 92.671 91.5367 100.555 91.9818 108.472C92.5104 116.99 90.549 121.612 86.0976 122.338C83.8719 122.639 81.9314 121.841 80.283 119.947C78.6416 118.045 77.5983 114.988 77.1531 110.783C76.4367 104.106 75.8594 97.3775 75.4143 90.5926C74.9692 83.8118 74.524 77.079 74.0789 70.4025Z" fill="black"/>
<path d="M157.418 78.5716C158.037 83.9121 157.481 89.0759 155.749 94.0593C154.013 99.0466 151.454 103.44 148.07 107.236C144.683 111.036 140.809 113.86 136.441 115.71C132.08 117.564 127.635 117.973 123.101 116.946C116.681 115.61 111.739 112.5 108.272 107.621C104.801 102.742 103.069 96.6071 103.069 89.2124C103.069 84.3775 103.911 79.8315 105.601 75.5704C107.288 71.3133 109.625 67.5898 112.612 64.4C115.596 61.2142 118.983 58.7185 122.767 56.921C126.55 55.1235 130.532 54.2809 134.716 54.3852C137.025 54.4935 139.425 55.292 141.922 56.7766C144.415 58.2651 146.797 60.1911 149.072 62.5543C151.343 64.9216 153.234 67.5136 154.747 70.3383C156.256 73.163 157.147 75.9074 157.418 78.5716ZM131.781 101.843C135.599 100.102 138.534 97.8429 140.586 95.0704C142.635 92.2898 143.859 89.3087 144.259 86.1309C144.655 82.9451 144.3 79.8877 143.187 76.9667C142.075 74.0377 140.364 71.5901 138.054 69.6321C137.338 69.1185 136.625 68.4565 135.912 67.642C135.196 66.8195 134.486 66.4062 133.784 66.4062C130.574 66.4062 127.524 67.5136 124.631 69.7284C121.737 71.9352 119.376 74.7318 117.55 78.1222C115.721 81.5047 114.855 84.9914 114.949 88.5864C114.949 92.1815 115.749 95.2148 117.356 97.6864C118.959 100.15 121.028 101.791 123.56 102.614C126.098 103.44 128.839 103.183 131.781 101.843Z" fill="black"/>
<path d="M179.321 72.1037C179.404 78.2667 179.533 84.4577 179.711 90.6728C179.895 96.892 179.989 103.079 179.989 109.242C179.989 111.084 179.877 112.901 179.655 114.699C179.432 116.496 179.005 118.222 178.375 119.867C177.669 122.029 176.469 123.157 174.772 123.253C173.082 123.357 171.747 122.386 170.766 120.332C169.431 117.564 168.721 114.582 168.638 111.393C168.638 109.029 168.638 105.663 168.638 101.298C168.638 96.9321 168.655 91.9809 168.693 86.4358C168.739 80.8827 168.805 75.1812 168.888 69.3272C168.979 63.4772 169.048 57.8278 169.097 52.379C169.142 46.9343 169.187 42.0833 169.236 37.8222C169.281 33.5651 169.305 30.3031 169.305 28.0321C169.305 27.2216 169.305 26.3269 169.305 25.3519C169.305 24.3688 169.434 23.4661 169.695 22.6395C169.963 21.9253 170.408 21.1309 171.03 20.2642C171.66 19.3895 172.241 18.9482 172.769 18.9482C173.576 18.9482 174.425 19.233 175.315 19.7988C176.205 20.3685 176.779 21.0586 177.04 21.8691C177.575 23.2093 177.979 24.6738 178.25 26.2667C178.518 27.8636 178.653 29.4284 178.653 30.9691C178.827 37.8503 178.959 44.7074 179.043 51.5444C179.133 58.3735 179.227 65.2265 179.321 72.1037Z" fill="black"/>
<path d="M251.701 105.535C251.875 107.075 252.118 108.644 252.424 110.237C252.737 111.834 252.761 113.347 252.494 114.779C252.41 116.011 251.986 117.247 251.228 118.486C250.466 119.718 249.642 120.537 248.752 120.942C248.046 121.255 247.027 121.102 245.691 120.493C244.356 119.875 243.507 119.096 243.146 118.165C241.901 115.084 240.767 111.93 239.738 108.696C238.715 105.466 237.672 102.256 236.608 99.0667C236.43 98.5531 236.295 97.9914 236.204 97.3815C236.11 96.7636 235.975 95.9852 235.801 95.0543C234.465 96.8117 233.283 98.4849 232.254 100.078C231.231 101.663 230.101 103.071 228.859 104.299C227.347 105.948 225.789 107.541 224.185 109.081C222.579 110.622 220.889 111.962 219.108 113.094C213.766 116.272 208.647 116.813 203.751 114.715C198.854 112.608 195.251 108.319 192.942 101.843C191.419 97.8309 190.748 93.4935 190.925 88.8272C191.11 84.1528 192.045 79.6068 193.735 75.1852C195.432 70.7676 197.79 66.9679 200.816 63.7901C202.242 62.2494 203.737 60.813 205.295 59.4728C206.853 58.1367 208.473 56.9009 210.164 55.7654C213.186 53.6148 215.857 52.1303 218.176 51.3037C220.492 50.4812 222.829 50.2244 225.187 50.5333C227.541 50.8463 230.237 51.6167 233.269 52.8444C234.688 52.5355 236.086 52.1222 237.47 51.6086C238.851 51.0951 240.162 50.9948 241.407 51.3037C243.187 51.713 244.3 52.8124 244.745 54.6099C245.19 56.4074 245.545 58.233 245.816 60.0827C246.707 67.5858 247.66 75.137 248.682 82.7445C249.711 90.3438 250.716 97.9392 251.701 105.535ZM231.934 73.179C232.907 69.6923 232.636 66.9478 231.127 64.9457C229.614 62.9355 227.211 62.137 223.921 62.5543C221.518 62.9636 219.094 64.0429 216.646 65.7963C214.198 67.5417 211.948 69.7725 209.899 72.4889C207.847 75.2093 206.178 78.1624 204.891 81.3482C203.601 84.538 202.909 87.6716 202.819 90.7531C202.993 92.3901 203.327 94.2639 203.82 96.3704C204.311 98.4809 205.49 100.094 207.354 101.217C209.319 102.461 211.144 102.594 212.834 101.619C214.521 100.636 216.079 99.4759 217.508 98.1358C220.976 94.8537 223.869 91.1062 226.189 86.9012C228.505 82.6883 230.421 78.1142 231.934 73.179Z" fill="black"/>
<path d="M359.063 17.8729C354.612 17.4556 350.181 17.0985 345.778 16.7975C341.372 16.4886 336.851 16.1235 332.216 15.7062C332.929 23.5182 333.641 31.0173 334.358 38.2074C335.071 45.3975 335.738 52.5355 336.361 59.6173C341.257 59.0074 346.154 58.3735 351.051 57.7074C355.947 57.0334 360.795 56.3874 365.601 55.7655C372.723 54.8466 376.639 57.1096 377.355 62.5543C377.717 65.1222 377.07 67.3611 375.422 69.263C373.77 71.1568 371.256 72.3605 367.882 72.8741C363.243 73.5923 358.653 74.2062 354.111 74.7198C349.576 75.2334 344.992 75.6988 340.367 76.1161C338.854 76.3207 337.829 76.7821 337.293 77.4963C336.764 78.2145 336.542 79.3982 336.625 81.0432C336.716 85.6655 336.764 90.2877 336.764 94.9099C336.764 99.5321 336.806 104.154 336.89 108.777C336.89 109.603 336.89 110.474 336.89 111.393C336.89 112.315 336.89 113.186 336.89 114.009C336.712 116.685 336.044 118.819 334.886 120.412C333.735 121.997 332.271 122.844 330.491 122.948C328.71 123.053 327.17 122.366 325.872 120.878C324.582 119.381 323.848 117.299 323.674 114.635C323.497 109.286 323.41 103.97 323.41 98.6815C323.41 93.3973 323.32 88.0809 323.146 82.7284C322.875 72.7698 322.583 62.8071 322.27 52.8445C321.963 42.8858 321.63 32.9232 321.268 22.9605C321.184 21.2071 320.562 19.871 319.404 18.9482C317.178 17.2068 315.972 15.1766 315.787 12.8654C315.61 10.5543 316.636 8.57625 318.861 6.92717C322.245 4.46761 325.942 2.92687 329.948 2.30495C336.542 1.18149 343.108 0.748161 349.646 1.00495C356.191 1.26174 362.624 2.72224 368.94 5.38643C370.014 5.80372 371.04 6.26915 372.014 6.78273C372.994 7.29631 373.933 7.85804 374.824 8.46792C376.159 9.39878 377.112 10.6346 377.689 12.1753C378.274 13.7161 378.162 15.2046 377.355 16.6371C376.639 17.6642 375.638 18.5911 374.351 19.4136C373.061 20.2401 371.836 20.5972 370.678 20.4889C368.72 20.4889 366.783 20.1037 364.864 19.3333C362.951 18.563 361.017 18.0775 359.063 17.8729Z" fill="black"/>
<path d="M449.876 111.698C450.05 113.238 450.294 114.807 450.6 116.4C450.913 117.997 450.937 119.51 450.669 120.942C450.586 122.174 450.162 123.43 449.403 124.714C448.642 125.998 447.818 126.792 446.927 127.105C446.221 127.414 445.202 127.257 443.867 126.64C442.532 126.03 441.683 125.311 441.321 124.489C440.076 121.407 438.943 118.226 437.913 114.94C436.891 111.657 435.848 108.419 434.783 105.23C434.606 104.716 434.47 104.154 434.38 103.544C434.286 102.927 434.15 102.148 433.977 101.217C432.641 103.071 431.459 104.764 430.429 106.305C429.407 107.846 428.277 109.286 427.035 110.622C425.522 112.163 423.964 113.704 422.361 115.244C420.755 116.785 419.064 118.125 417.284 119.257C411.942 122.435 406.823 122.972 401.927 120.878C397.03 118.771 393.427 114.53 391.118 108.151C389.595 104.042 388.924 99.6565 389.101 94.9901C389.285 90.3158 390.221 85.7939 391.911 81.4284C393.608 77.063 395.966 73.2392 398.991 69.9531C400.417 68.4124 401.913 66.9759 403.471 65.6358C405.029 64.2997 406.649 63.0639 408.339 61.9284C411.361 59.7778 414.032 58.2932 416.352 57.4667C418.668 56.6442 421.005 56.3874 423.363 56.6963C425.717 57.0093 428.412 57.8318 431.445 59.1679C432.864 58.859 434.262 58.4216 435.646 57.8519C437.027 57.2861 438.338 57.1577 439.583 57.4667C441.363 57.876 442.476 58.9753 442.921 60.7729C443.366 62.5704 443.721 64.396 443.992 66.2457C444.883 73.8531 445.835 81.4364 446.858 88.9877C447.887 96.5309 448.892 104.102 449.876 111.698ZM430.109 79.5025C431.083 76.0037 430.812 73.2272 429.303 71.1729C427.79 69.1185 425.387 68.3482 422.097 68.8618C419.694 69.1747 417.27 70.226 414.822 72.0235C412.373 73.821 410.123 76.0599 408.075 78.7321C406.023 81.3963 404.354 84.3253 403.067 87.5111C401.777 90.701 401.085 93.8346 400.995 96.9161C401.168 98.6614 401.502 100.559 401.996 102.614C402.487 104.668 403.665 106.313 405.529 107.541C407.494 108.676 409.32 108.757 411.01 107.782C412.697 106.798 414.255 105.639 415.684 104.299C419.151 101.017 422.045 97.2692 424.364 93.0642C426.681 88.8513 428.597 84.3293 430.109 79.5025ZM427.703 40.679C424.761 40.5747 422.779 39.5957 421.749 37.742C420.727 35.8923 420.845 33.6815 422.097 31.1136C423.516 28.0321 425.049 25.0309 426.701 22.1099C428.35 19.1809 430.068 16.2759 431.848 13.3951C432.996 11.4491 434.415 10.2735 436.105 9.86422C437.802 9.44693 439.363 9.80804 440.793 10.9395C442.396 12.063 443.328 13.6318 443.589 15.642C443.857 17.6442 443.37 19.6704 442.128 21.7247C440.699 24.2926 439.207 26.8605 437.649 29.4284C436.091 31.9963 434.422 34.4639 432.641 36.8272C431.925 37.8543 431.059 38.6528 430.04 39.2185C429.017 39.7763 428.238 40.2617 427.703 40.679Z" fill="black"/>
<path d="M509.837 113.238C510.282 115.606 509.813 117.251 508.432 118.181C507.048 119.104 505.643 119.923 504.217 120.637C497.631 123.719 491.691 124.104 486.398 121.793C481.101 119.481 477.161 114.53 474.574 106.931C473.061 102.513 471.973 97.863 471.305 92.984C470.637 88.1049 469.768 83.0454 468.704 77.8012C468.704 77.8012 468.387 77.8012 467.758 77.8012C467.135 77.8012 466.603 77.6488 466.158 77.3358C465.268 76.6216 464.311 75.8553 463.292 75.0407C462.27 74.2182 461.762 73.3395 461.762 72.4086C461.668 71.4898 462.044 70.3142 462.889 68.8778C463.73 67.4333 464.509 66.7111 465.226 66.7111C467.452 66.6068 469.051 66.017 470.025 64.9457C471.006 63.8664 471.632 62.5062 471.903 60.8691C472.171 59.2241 472.48 57.5228 472.835 55.7654C473.197 53.1012 473.687 50.5133 474.309 47.9975C474.929 45.4738 475.596 42.9259 476.313 40.358C476.664 38.9256 477.286 37.6698 478.177 36.5864C479.067 35.5071 480.312 35.2222 481.919 35.7358C483.616 36.1531 484.575 37.0599 484.798 38.4482C485.021 39.8284 485.038 41.2889 484.854 42.8296C484.409 46.1157 484.009 49.4259 483.657 52.7642C483.303 56.1025 482.906 59.6253 482.461 63.3247C483.88 63.2204 485.188 63.1161 486.384 63.0198C487.587 62.9154 488.77 62.8593 489.931 62.8593C491.886 62.9676 493.819 63.096 495.732 63.2444C497.651 63.3969 499.547 63.7259 501.421 64.2395C502.134 64.4562 502.868 65.1022 503.619 66.1815C504.377 67.2528 504.801 68.1997 504.885 69.0222C504.885 69.8488 504.551 70.8519 503.883 72.0395C503.216 73.2191 502.527 73.9093 501.825 74.1099C499.505 74.9364 497.144 75.5503 494.744 75.9556C492.341 76.3648 489.935 76.7741 487.525 77.1914C486.725 77.396 485.883 77.4963 484.993 77.4963C484.103 77.4963 483.122 77.5525 482.058 77.6568C481.613 83.0935 481.786 88.2494 482.586 93.1284C483.393 98.0074 485.174 102.61 487.928 106.931C489.086 108.881 490.446 110.085 492.004 110.542C493.562 111.003 495.182 111.16 496.872 111.007C498.57 110.859 500.26 110.678 501.95 110.462C502.931 110.462 503.956 110.313 505.024 110.012C506.088 109.703 507.045 109.731 507.89 110.093C508.742 110.446 509.392 111.497 509.837 113.238Z" fill="black"/>
<path d="M528.266 59.4729C530.304 59.6775 531.483 60.6284 531.799 62.3297C532.112 64.0229 532.272 65.7402 532.272 67.4815C532.272 70.9723 532.272 74.4911 532.272 78.042C532.272 81.5849 532.272 85.1519 532.272 88.747C532.272 88.747 532.223 88.747 532.133 88.747C532.133 91.9247 532.154 95.1346 532.202 98.3766C532.248 101.611 532.223 104.82 532.133 108.006C532.133 109.033 532.133 110.141 532.133 111.328C532.133 112.508 531.91 113.503 531.465 114.314C530.843 115.341 530.064 116.368 529.128 117.395C528.189 118.422 527.278 118.936 526.388 118.936C525.588 118.936 524.746 118.402 523.856 117.331C522.966 116.252 522.162 115.196 521.45 114.169C521.178 113.752 521.022 113.186 520.977 112.468C520.938 111.754 520.921 111.036 520.921 110.317C521.272 103.023 521.623 95.7284 521.978 88.442C522.34 81.1476 522.743 73.801 523.188 66.4062C523.272 64.6649 523.623 63.0198 524.246 61.4791C524.875 59.9383 526.214 59.2723 528.266 59.4729ZM529.462 32.0445C531.065 32.1528 532.376 32.9232 533.399 34.3556C534.428 35.792 534.894 37.5334 534.804 39.5877C534.532 43.6963 532.22 45.6504 527.862 45.4457C526.527 45.3494 525.278 44.9923 524.12 44.3704C522.959 43.7525 522.427 42.2639 522.521 39.9087C522.521 37.8544 523.251 36.0047 524.718 34.3556C526.193 32.7105 527.772 31.9402 529.462 32.0445Z" fill="black"/>
<path d="M624.675 77.1914C624.849 81.9099 624.96 86.6605 625.009 91.4432C625.054 96.2179 625.078 101.017 625.078 105.84C625.078 106.975 624.943 108.111 624.675 109.242C624.404 110.365 624.139 111.497 623.882 112.628C623.52 114.169 622.957 115.481 622.199 116.561C621.448 117.632 620.269 118.117 618.665 118.021C617.059 117.917 615.925 117.275 615.257 116.095C614.59 114.907 614.214 113.495 614.131 111.858C613.953 110.317 613.866 108.752 613.866 107.156C613.866 105.563 613.866 103.994 613.866 102.453C613.866 98.0355 613.908 93.5938 613.991 89.1321C614.082 84.6624 614.131 80.1685 614.131 75.6506C614.037 74.6235 613.922 73.5963 613.783 72.5692C613.651 71.542 613.498 70.4627 613.324 69.3272C613.146 68.613 612.767 68.0513 612.183 67.642C611.606 67.2247 611.008 67.1726 610.389 67.4815C605.666 69.5358 602.376 72.8741 600.512 77.4963C598.989 81.296 597.608 85.2281 596.367 89.2926C595.122 93.3491 593.922 97.3775 592.764 101.378C592.402 102.405 592.221 103.561 592.221 104.844C592.221 106.128 591.957 107.184 591.428 108.006C590.806 109.033 589.982 110.061 588.952 111.088C587.93 112.115 586.977 112.628 586.087 112.628C585.28 112.524 584.407 111.934 583.472 110.863C582.543 109.784 581.768 108.728 581.149 107.701C580.787 106.975 580.648 106.076 580.731 105.005C580.822 103.926 580.87 102.87 580.87 101.843C580.87 96.9121 580.846 92.033 580.801 87.2062C580.763 82.3834 580.655 77.5043 580.481 72.5692C580.481 71.7466 580.321 70.9482 580.008 70.1778C579.691 69.4074 579.358 68.613 579.006 67.7864C578.384 66.354 577.448 65.9969 576.196 66.7111C575.397 67.1204 574.642 67.5577 573.929 68.0272C573.213 68.4886 572.545 69.0222 571.926 69.6321C567.648 74.8763 564.289 80.6059 561.841 86.821C559.392 93.0401 557.633 99.6364 556.569 106.61C556.569 107.123 556.544 107.637 556.499 108.151C556.461 108.664 556.349 109.13 556.165 109.547C555.81 111.497 555.167 113.062 554.232 114.249C553.293 115.429 551.895 115.862 550.031 115.549C548.25 115.24 547.068 114.37 546.483 112.933C545.906 111.501 545.666 109.86 545.76 108.006C546.111 100.102 546.463 92.1935 546.817 84.2852C547.179 76.3688 547.534 68.4565 547.888 60.5482C547.888 60.0346 547.909 59.4969 547.958 58.9272C548.003 58.3614 548.114 57.9281 548.292 57.6272C548.827 56.9009 549.384 56.2309 549.961 55.621C550.535 55.0031 551.091 54.3852 551.63 53.7753C552.166 54.4935 552.771 55.1877 553.439 55.8617C554.106 56.5278 554.482 57.2661 554.565 58.0766C554.739 60.2392 554.83 62.45 554.83 64.705C554.83 66.9639 554.875 69.1747 554.969 71.3334C554.969 71.9553 554.99 72.6253 555.038 73.3395C555.084 74.0577 555.15 74.9846 555.233 76.1161C556.836 73.7528 558.259 71.542 559.504 69.4877C560.756 67.4334 562.181 65.5837 563.788 63.9346C565.381 62.2976 567.092 60.7367 568.921 59.2482C570.747 57.7516 572.684 56.592 574.736 55.7655C578.12 54.4414 580.877 54.4735 583.013 55.8617C585.144 57.242 586.838 59.8861 588.09 63.7901C588.535 65.1182 588.911 66.4503 589.217 67.7864C589.53 69.1266 589.912 70.6192 590.357 72.2642C590.976 71.3334 591.533 70.4627 592.027 69.6482C592.517 68.8256 593.073 68.1556 593.696 67.642C595.922 65.684 598.147 63.6778 600.373 61.6235C602.599 59.5692 604.998 57.8278 607.579 56.3914C611.23 54.4334 614.371 54.2247 616.996 55.7655C619.618 57.3062 621.559 60.3877 622.811 65.0099C623.339 66.9679 623.76 68.9741 624.077 71.0284C624.39 73.0827 624.591 75.1371 624.675 77.1914Z" fill="black"/>
<path d="M696.795 105.535C696.969 107.075 697.213 108.644 697.519 110.237C697.832 111.834 697.856 113.347 697.588 114.779C697.505 116.011 697.081 117.247 696.322 118.486C695.561 119.718 694.737 120.537 693.846 120.942C693.14 121.255 692.121 121.102 690.786 120.493C689.451 119.875 688.602 119.096 688.24 118.165C686.995 115.084 685.862 111.93 684.832 108.696C683.81 105.466 682.767 102.256 681.702 99.0667C681.525 98.5531 681.389 97.9914 681.299 97.3815C681.205 96.7636 681.069 95.9852 680.896 95.0543C679.56 96.8117 678.378 98.4849 677.348 100.078C676.326 101.663 675.196 103.071 673.954 104.299C672.441 105.948 670.883 107.541 669.28 109.081C667.674 110.622 665.983 111.962 664.203 113.094C658.861 116.272 653.742 116.813 648.846 114.715C643.949 112.608 640.346 108.319 638.037 101.843C636.514 97.8309 635.843 93.4935 636.02 88.8272C636.204 84.1528 637.14 79.6068 638.83 75.1852C640.527 70.7676 642.885 66.9679 645.91 63.7901C647.336 62.2494 648.832 60.813 650.39 59.4728C651.948 58.1367 653.568 56.9009 655.258 55.7654C658.28 53.6148 660.951 52.1303 663.271 51.3037C665.587 50.4812 667.924 50.2244 670.282 50.5333C672.636 50.8463 675.331 51.6167 678.364 52.8444C679.783 52.5355 681.181 52.1222 682.565 51.6086C683.945 51.0951 685.257 50.9948 686.502 51.3037C688.282 51.713 689.395 52.8124 689.84 54.6099C690.285 56.4074 690.64 58.233 690.911 60.0827C691.801 67.5858 692.754 75.137 693.777 82.7445C694.806 90.3438 695.811 97.9392 696.795 105.535ZM677.028 73.179C678.002 69.6923 677.731 66.9478 676.222 64.9457C674.709 62.9355 672.306 62.137 669.016 62.5543C666.613 62.9636 664.189 64.0429 661.741 65.7963C659.292 67.5417 657.042 69.7725 654.994 72.4889C652.942 75.2093 651.273 78.1624 649.986 81.3482C648.696 84.538 648.004 87.6716 647.914 90.7531C648.087 92.3901 648.421 94.2639 648.915 96.3704C649.405 98.4809 650.584 100.094 652.448 101.217C654.413 102.461 656.239 102.594 657.929 101.619C659.616 100.636 661.174 99.4759 662.603 98.1358C666.07 94.8537 668.964 91.1062 671.283 86.9012C673.599 82.6883 675.516 78.1142 677.028 73.179Z" fill="black"/>
</svg>
