<?xml version="1.0" standalone="no"?>
<!DOCTYPE svg PUBLIC "-//W3C//DTD SVG 20010904//EN"
 "http://www.w3.org/TR/2001/REC-SVG-20010904/DTD/svg10.dtd">
<svg version="1.0" xmlns="http://www.w3.org/2000/svg"
 width="427.000000pt" height="51.000000pt" viewBox="0 0 427.000000 51.000000"
 preserveAspectRatio="xMidYMid meet">

<g transform="translate(0.000000,51.000000) scale(0.100000,-0.100000)"
fill="#8D5409   " stroke="none">
<path d="M59 421 c-21 -17 -24 -28 -24 -90 0 -86 12 -100 86 -109 l54 -7 0
-45 c0 -43 -1 -45 -30 -45 -23 0 -31 5 -33 23 -3 18 -10 22 -38 22 -33 0 -34
-1 -34 -39 0 -55 25 -71 110 -71 95 0 105 10 105 104 0 91 -9 102 -85 113
l-55 8 0 45 c0 43 1 45 30 45 23 0 31 -5 33 -22 3 -19 10 -23 38 -23 35 0 35
0 32 42 -4 53 -28 68 -109 68 -41 0 -63 -5 -80 -19z"/>
<path d="M385 428 c-2 -7 -20 -85 -40 -173 -20 -88 -38 -168 -41 -177 -4 -15
1 -18 35 -18 38 0 40 2 47 35 6 34 7 35 54 35 47 0 48 -1 54 -35 7 -33 9 -35
47 -35 34 0 39 3 35 18 -3 9 -21 87 -41 172 -20 85 -38 163 -41 173 -4 13 -16
17 -55 17 -31 0 -51 -5 -54 -12z m74 -152 c17 -89 15 -96 -17 -96 -16 0 -31 2
-34 5 -2 3 2 41 11 85 8 44 18 77 22 73 3 -5 11 -35 18 -67z"/>
<path d="M630 251 l0 -191 93 0 c125 0 137 8 137 99 0 39 -5 72 -12 79 -9 9
-9 15 0 24 17 17 15 130 -2 154 -12 16 -29 20 -115 22 l-101 4 0 -191z m148
82 l3 -53 -35 0 -36 0 0 56 0 55 33 -3 c31 -3 32 -4 35 -55z m2 -168 l0 -55
-35 0 -35 0 0 55 0 55 35 0 35 0 0 -55z"/>
<path d="M965 428 c-11 -6 -23 -16 -27 -22 -4 -6 -8 -77 -8 -158 0 -184 2
-188 113 -188 117 0 117 0 117 183 0 84 -4 157 -8 163 -22 33 -143 47 -187 22z
m115 -178 l0 -130 -35 0 -35 0 0 130 0 130 35 0 35 0 0 -130z"/>
<path d="M1230 251 l0 -191 40 0 40 0 0 70 c0 92 18 92 55 0 l28 -70 43 0 43
0 -34 73 c-22 48 -30 73 -22 76 27 8 37 37 37 111 0 110 -5 114 -129 118
l-101 4 0 -191z m150 69 l0 -60 -35 0 -35 0 0 60 0 60 35 0 35 0 0 -60z"/>
<path d="M1530 250 l0 -190 106 0 105 0 -3 28 c-3 26 -6 27 -65 30 l-63 3 0
49 0 50 50 0 c49 0 50 1 50 30 0 29 -1 30 -50 30 l-50 0 0 50 0 50 60 0 60 0
0 30 0 30 -100 0 -100 0 0 -190z"/>
<path d="M1820 428 c-23 -13 -25 -20 -28 -94 -3 -96 2 -103 82 -111 l56 -6 0
-48 c0 -48 -1 -49 -30 -49 -25 0 -30 4 -30 25 0 23 -4 25 -40 25 -40 0 -40 0
-40 -39 0 -55 25 -71 110 -71 89 0 102 11 108 88 6 89 -1 109 -46 121 -20 6
-49 11 -64 11 -27 0 -28 2 -28 51 0 49 1 50 28 47 19 -2 28 -9 30 -25 3 -19
10 -23 43 -23 36 0 39 2 39 29 0 52 -29 74 -101 78 -40 3 -73 -1 -89 -9z"/>
<path d="M2200 266 c0 -209 -2 -206 117 -206 105 0 103 -4 103 206 l0 174 -35
0 -35 0 -1 -97 c-1 -226 0 -218 -36 -221 l-32 -3 -3 158 -3 158 -37 3 -38 3 0
-175z"/>
<path d="M2500 250 l0 -190 40 0 40 0 0 70 c0 43 4 70 11 70 5 0 24 -31 41
-70 31 -69 31 -70 69 -70 22 0 39 2 39 4 0 2 -14 34 -30 71 l-30 67 25 20 c23
18 25 26 25 98 0 73 -2 80 -26 99 -23 18 -41 21 -115 21 l-89 0 0 -190z m150
70 l0 -60 -35 0 -35 0 0 60 0 60 35 0 35 0 0 -60z"/>
<path d="M2800 250 l0 -190 95 0 c120 0 135 11 135 99 0 37 -5 65 -14 73 -11
12 -11 17 0 33 15 20 19 122 6 141 -16 24 -55 34 -136 34 l-86 0 0 -190z m148
83 l3 -53 -35 0 -36 0 0 56 0 55 33 -3 c31 -3 32 -4 35 -55z m2 -168 l0 -55
-35 0 -35 0 0 55 0 55 35 0 35 0 0 -55z"/>
<path d="M3166 432 c-4 -6 -86 -358 -86 -368 0 -2 18 -4 40 -4 33 0 40 3 40
19 0 42 11 51 60 51 48 0 49 -1 52 -33 3 -30 6 -32 45 -35 l41 -3 -13 53 c-7
29 -27 115 -45 191 l-32 137 -48 0 c-27 0 -51 -4 -54 -8z m70 -154 c20 -95 19
-98 -21 -98 -19 0 -35 1 -35 3 0 1 7 37 15 80 8 43 15 81 15 85 0 22 15 -17
26 -70z"/>
<path d="M3410 251 l0 -191 35 0 34 0 3 117 3 118 24 -65 c67 -184 59 -170 97
-170 l34 0 0 190 0 190 -35 0 -34 0 -3 -117 -3 -118 -41 115 -41 115 -37 3
-36 3 0 -190z"/>
<path d="M3750 428 c-25 -14 -25 -14 -28 -181 l-2 -167 25 -10 c42 -16 147
-12 173 6 21 15 22 21 22 173 0 134 -3 161 -16 172 -23 19 -142 23 -174 7z
m110 -179 l0 -130 -32 3 -33 3 -3 114 c-1 63 0 121 2 128 3 7 19 13 36 13 l30
0 0 -131z"/>
<path d="M4050 433 c-30 -11 -40 -37 -40 -102 0 -36 4 -71 8 -78 11 -17 58
-33 98 -33 l34 0 0 -50 c0 -49 -1 -50 -30 -50 -25 0 -30 4 -30 25 0 23 -4 25
-40 25 -40 0 -40 0 -40 -39 0 -55 25 -71 110 -71 97 0 110 13 110 104 0 92 -9
105 -83 113 l-57 6 0 48 c0 48 1 49 30 49 25 0 30 -4 30 -25 0 -22 4 -25 40
-25 38 0 40 1 40 33 0 38 -7 50 -37 66 -22 11 -115 14 -143 4z"/>
</g>
</svg>
